<svg xmlns="http://www.w3.org/2000/svg" x="0px" y="0px" width="100" height="100" viewBox="0,0,256,256">
<g fill-opacity="0.98824" fill="#000000" fill-rule="nonzero" stroke="none" stroke-width="1" stroke-linecap="butt" stroke-linejoin="miter" stroke-miterlimit="10" stroke-dasharray="" stroke-dashoffset="0" font-family="none" font-weight="none" font-size="none" text-anchor="none" style="mix-blend-mode: normal"><g transform="scale(2.56,2.56)"><path d="M67.7207,5.42969c-9.62034,0.0184 -18.23521,5.78593 -22.35742,15.09375c-2.0863,4.71029 -2.76023,9.61858 -2.27539,14.17773c-3.2279,5.84994 -4.26172,8.46875 -4.26172,8.46875c-0.13883,0.3726 -0.04374,0.79205 0.24219,1.06836l1.35352,1.30469l-27.68555,34.2207c-0.1188,0.14743 -0.1933,0.32556 -0.21484,0.51367c0,0 -0.24393,2.09118 -0.3125,4.62891c-0.06857,2.53773 -0.02011,5.48525 0.79102,7.55273c0.0522,0.13254 0.1321,0.2524 0.23438,0.35156l1.12891,1.0957c0.04159,0.04097 0.08668,0.07822 0.13477,0.11133c0.01846,0.01301 0.03735,0.02538 0.05664,0.03711c0.30166,0.225 0.67127,0.39671 1.08008,0.43945c0.03441,0.00309 0.06897,0.00439 0.10351,0.00391c0,0 2.10751,0.0015 4.74609,-0.42773c2.63858,-0.42922 5.85258,-1.25607 8.20117,-3.11328c0.05759,-0.04554 0.10999,-0.09729 0.15625,-0.1543l1.51563,-1.86719c0.12906,-0.15919 0.2061,-0.35418 0.2207,-0.55859l0.26563,-3.65625l3.02148,-0.50586c0.24027,-0.04009 0.45764,-0.16648 0.61133,-0.35547l1.27734,-1.57227c0.12906,-0.15919 0.2061,-0.35418 0.2207,-0.55859l0.26758,-3.6582l3.01953,-0.50391c0.44581,-0.07367 0.78685,-0.43712 0.83203,-0.88672l0.42773,-4.31055l1.81836,-2.24023l3.94727,-1.10742c0.40563,-0.11416 0.69619,-0.47033 0.72656,-0.89062l0.26758,-3.68359l3.17188,-0.63281c0.22912,-0.04561 0.43504,-0.16999 0.58203,-0.35156l3.12695,-3.85156l1.13867,0.32813c0.38439,0.11671 0.8013,-0.0079 1.05859,-0.31641c0.14945,-0.11187 3.05138,-2.33299 6.76172,-5.73633c9.18814,0.70328 18.68189,-5.41497 23.18359,-15.57812c5.40395,-12.19761 1.65731,-25.91177 -8.60938,-30.82422c-0.04727,-0.02948 -0.09692,-0.05496 -0.14844,-0.07617c-0.0175,-0.00717 -0.03524,-0.0124 -0.05273,-0.01953c-0.09272,-0.04297 -0.18163,-0.09128 -0.27539,-0.13281c-1.44097,-0.63818 -2.92634,-1.06424 -4.42969,-1.30469c-1.70767,-0.35256 -3.40282,-0.52467 -5.06836,-0.52148zM69.95117,7.7207c0.8783,0.00331 1.75341,0.07943 2.61914,0.22266c1.3664,0.29869 2.74427,0.72018 4.12305,1.2793c9.23871,4.31512 12.85111,16.83629 7.7832,28.27539c-4.27183,9.6442 -13.30912,15.24344 -21.62109,14.39453c-0.28687,-0.02912 -0.57235,0.06699 -0.7832,0.26367c-3.62521,3.36936 -5.9542,5.10016 -6.44922,5.47461l-0.57812,-0.55859c-0.20163,-0.19438 -0.47554,-0.29531 -0.75509,-0.27823c-0.27955,0.01708 -0.53914,0.15059 -0.71561,0.36808l-3.86523,4.76172l-3.56641,0.71094c-0.44068,0.0884 -0.76826,0.45992 -0.80078,0.9082l-0.27148,3.74219l-3.57617,1.00391c-0.19886,0.05579 -0.37557,0.17178 -0.50586,0.33203l-2.20898,2.7207c-0.12331,0.15188 -0.19936,0.33658 -0.21875,0.53125l-0.38281,3.8457l-3.04102,0.50977c-0.45507,0.07533 -0.79959,0.45213 -0.83398,0.91211l-0.29883,4.12891l-0.83984,1.03516l-3.42383,0.57227c-0.45574,0.07551 -0.80046,0.45333 -0.83398,0.91406l-0.30078,4.12695l-1.21289,1.49805c-1.85973,1.44771 -4.77475,2.28053 -7.22852,2.67969c-0.48322,0.07861 -0.92005,0.13125 -1.34766,0.18164l36.87891,-45.58203c0.00734,-0.00963 0.0145,-0.0194 0.02148,-0.0293c0.60807,-0.81191 1.13711,-1.83603 1.46484,-2.80859c0.16387,-0.48628 0.27999,-0.95251 0.30078,-1.42773c0.02079,-0.47523 -0.03004,-1.09464 -0.59766,-1.53516c-0.5164,-0.40044 -1.1353,-0.42516 -1.64453,-0.33594c-0.50923,0.08922 -0.98502,0.29067 -1.45117,0.54883c-0.9323,0.51633 -1.82147,1.26565 -2.45703,2.08984l0.01367,-0.01953l-35.13476,43.42774c0.14285,-2.35255 0.44225,-4.36294 0.48437,-4.63281l27.54688,-34.04687c0.32645,-0.40351 0.28998,-0.98969 -0.08398,-1.34961l-0.625,-0.60156c0.16962,-0.35698 1.24017,-2.61611 4.31055,-8.1543c0.1665,-0.22237 0.23301,-0.50398 0.18359,-0.77734c-0.84285,-4.64044 -0.29058,-9.85323 1.91797,-14.83984h-0.00195c3.83964,-8.66896 11.49031,-14.06708 19.0625,-14.45898c0.31551,-0.01633 0.63036,-0.02463 0.94531,-0.02344zM73.33789,16.25781c-0.0268,0.00128 -0.05329,0.00814 -0.08008,0.00977c-0.26776,0.01638 -0.53379,0.05335 -0.79883,0.10352c-0.0949,0.01791 -0.18887,0.03844 -0.2832,0.06055c-0.25152,0.05905 -0.50004,0.13078 -0.74609,0.21875c-0.08129,0.029 -0.16165,0.05973 -0.24219,0.0918c-0.23058,0.09196 -0.45648,0.19818 -0.67969,0.31445c-0.10083,0.05244 -0.19976,0.10683 -0.29883,0.16406c-0.21308,0.12324 -0.42132,0.25573 -0.625,0.40039c-0.09743,0.06912 -0.19211,0.141 -0.28711,0.21484c-0.18633,0.14496 -0.36897,0.29844 -0.54492,0.46094c-0.0977,0.09018 -0.19294,0.18196 -0.28711,0.27734c-0.1704,0.17265 -0.33441,0.35396 -0.49219,0.54297c-0.08178,0.09795 -0.16213,0.19666 -0.24023,0.29883c-0.15548,0.20337 -0.30161,0.4154 -0.44141,0.63477c-0.07146,0.1121 -0.13997,0.22571 -0.20703,0.3418c-0.12481,0.21604 -0.24103,0.43874 -0.34961,0.66797c-0.03358,0.0709 -0.07547,0.13492 -0.10742,0.20703c-0.86732,1.95818 -0.99475,4.07288 -0.46875,5.89063c0.06559,0.22639 0.13881,0.4477 0.22461,0.66406c0.00053,0.00133 0.00143,0.00257 0.00195,0.00391c0.08568,0.2157 0.18164,0.42687 0.28711,0.63086l0.00195,0.00195c0.1058,0.20443 0.22034,0.40282 0.3457,0.59375c0.08106,0.12369 0.17256,0.23804 0.26172,0.35547c0.04933,0.06488 0.09275,0.13441 0.14453,0.19727l0.00195,0.00195c0.14474,0.17554 0.29922,0.34339 0.46289,0.50195l0.00195,0.00195c0.32797,0.31778 0.69548,0.60074 1.09766,0.83984c0.20087,0.11919 0.41199,0.22725 0.63086,0.32422l0.00195,0.00195c3.51536,1.55713 7.68759,-0.59252 9.42188,-4.50781c0.32518,-0.73412 0.54569,-1.49214 0.66797,-2.24609c0.20366,-1.25747 0.13206,-2.50795 -0.19727,-3.64453c-0.06546,-0.22643 -0.1409,-0.44765 -0.22656,-0.66406l-0.00195,-0.00195c-0.0855,-0.21578 -0.17987,-0.42677 -0.28516,-0.63086v-0.00195l-0.00195,-0.00195c-0.63645,-1.23176 -1.63105,-2.23436 -2.94922,-2.81836c-0.21897,-0.09698 -0.44258,-0.17947 -0.66602,-0.24805c-0.67271,-0.20616 -1.36241,-0.28667 -2.04687,-0.25391zM73.86719,18.26563c0.47288,0.02563 0.93859,0.13321 1.375,0.32617c0.0174,0.00772 0.03353,0.01742 0.05078,0.02539v0.00195c0.71504,1.7048 0.71139,3.85471 -0.18164,5.87695c-1.1232,2.53907 -3.33564,4.17218 -5.58203,4.38477c-0.08918,-0.07419 -0.18082,-0.15049 -0.26367,-0.23242c-0.11181,-0.11055 -0.21658,-0.22792 -0.31641,-0.35156l-0.00195,-0.00195c-0.03798,-0.0471 -0.07123,-0.09955 -0.10742,-0.14844c-0.05955,-0.08056 -0.12119,-0.15897 -0.17578,-0.24414c-0.0874,-0.13604 -0.16785,-0.27693 -0.24219,-0.42383v-0.00195c-0.14873,-0.29416 -0.27001,-0.60868 -0.36328,-0.93945c-0.37324,-1.32669 -0.2841,-2.90979 0.40039,-4.45508c0.02202,-0.04971 0.04742,-0.09568 0.07031,-0.14453c0.09013,-0.19235 0.18614,-0.3779 0.28906,-0.55664c0.04861,-0.08439 0.09913,-0.16676 0.15039,-0.24805c0.10299,-0.16336 0.21134,-0.32013 0.32422,-0.4707c0.06924,-0.09232 0.14025,-0.18213 0.21289,-0.26953c0.10596,-0.12754 0.21558,-0.24838 0.32813,-0.36523c0.48705,-0.50559 1.03137,-0.9099 1.60352,-1.20312c0.04783,-0.0245 0.09634,-0.04542 0.14453,-0.06836c0.24428,-0.1163 0.4915,-0.21184 0.74219,-0.28711c0.07557,-0.02267 0.15068,-0.04951 0.22656,-0.06836c0.07649,-0.01902 0.1538,-0.03569 0.23047,-0.05078c0.15838,-0.03109 0.31634,-0.05236 0.47461,-0.06641c0.20485,-0.01831 0.40892,-0.02855 0.61133,-0.01758zM55.42773,42.5918c-0.0292,0.1822 -0.05145,0.36231 -0.14062,0.62695c-0.24865,0.73789 -0.72241,1.646 -1.16602,2.24023l-38.04102,47.02149c-0.04146,0.0004 -0.25059,0.00975 -0.25781,0.00977c-0.03874,-0.0047 -0.05554,-0.0016 -0.12305,-0.07617c-0.07939,-0.08767 -0.19242,-0.27665 -0.2832,-0.53125c-0.12104,-0.33947 -0.1552,-0.77089 -0.20703,-1.18359c0.07847,-0.0286 0.13023,-0.0357 0.23047,-0.08789c0.11505,-0.05991 0.25467,-0.14007 0.40625,-0.3125c0.05172,-0.05884 0.09563,-0.15073 0.14063,-0.23633l36.91602,-45.62695c0.00462,-0.00581 0.00918,-0.01167 0.01367,-0.01758c0.42244,-0.54781 1.17835,-1.19312 1.8418,-1.56055c0.26893,-0.14893 0.48524,-0.21507 0.66992,-0.26562z"></path></g></g>
</svg>